# xmcd
#
# Track frame offsets: 
#        150
#        17681
#        38654
#        58070
#        70803
#        92775
#        117447
#        142762
#        171495
#        186906
#        210051
#        226636
#        245216
#        263421
#        280315
#        297227
#        322374
#        335667
#
# Disc length: 4792 seconds
#
# Revision: 0
# Processed by: cddbd v1.5.2PL0 Copyright (c) Steve Scherf et al.
# Submitted via: ExactAudioCopy v1.1
#
DISCID=0c12b612
DTITLE=Various Artist - Akella Presents - vol.65 - Women's Blues  CD1
DYEAR=2016
DGENRE=Blues
TTITLE0=Danielle Schnebelen - Bad Bad Feeling
TTITLE1=Shemekia Copeland - Too Close
TTITLE2=Norah Jones - Deceptively Yours
TTITLE3=Diunna Greenleaf - Beautiful Hat
TTITLE4=Christine Lakeland - Borrowed Time
TTITLE5=Sista Monica Parker - Come to Mama
TTITLE6=Lizzi Neal Band - Blues On My Mind
TTITLE7=Patty Benson - I Can Too
TTITLE8=Kara Grainger - You're The One
TTITLE9=Dana Gillespie - No Surprises
TTITLE10=Duffy Bishop - Daughter's Lament
TTITLE11=Ana Popovic - Rain Fall Down
TTITLE12=Roach and Cafe R&B - WPW
TTITLE13=Tamara Peterson - How Do I, Why Do I
TTITLE14=Jessy Martens - Darling
TTITLE15=Connie Hawkins - Narrow Road
TTITLE16=Candye Kane - I Wanted You To Walk Right Thru That Door
TTITLE17=Adele - Lovesong
EXTD=
EXTT0=
EXTT1=
EXTT2=
EXTT3=
EXTT4=
EXTT5=
EXTT6=
EXTT7=
EXTT8=
EXTT9=
EXTT10=
EXTT11=
EXTT12=
EXTT13=
EXTT14=
EXTT15=
EXTT16=
EXTT17=
PLAYORDER=
